<?xml version="1.0" encoding="utf-8" standalone="no"?>
<!DOCTYPE svg PUBLIC "-//W3C//DTD SVG 1.1//EN"
  "http://www.w3.org/Graphics/SVG/1.1/DTD/svg11.dtd">
<!-- Created with matplotlib (http://matplotlib.org/) -->
<svg height="720pt" version="1.1" viewBox="0 0 1440 720" width="1440pt" xmlns="http://www.w3.org/2000/svg" xmlns:xlink="http://www.w3.org/1999/xlink">
 <defs>
  <style type="text/css">
*{stroke-linecap:butt;stroke-linejoin:round;}
  </style>
 </defs>
 <g id="figure_1">
  <g id="patch_1">
   <path d="M 0 720 
L 1440 720 
L 1440 0 
L 0 0 
z
" style="fill:#ffffff;"/>
  </g>
  <g id="axes_1">
   <g id="patch_2">
    <path d="M 180 630 
L 1296 630 
L 1296 86.4 
L 180 86.4 
z
" style="fill:#ffffff;"/>
   </g>
   <g id="PolyCollection_1">
    <path clip-path="url(#p08d50456cb)" d="M 230.727273 -3512.702137 
L 230.727273 -1417.089863 
L 241.186504 -2622.978501 
L 251.645736 -1570.46532 
L 262.104967 -798.319991 
L 272.564199 -675.720489 
L 283.02343 -1292.988286 
L 293.482662 -941.496192 
L 303.941893 -1417.645745 
L 314.401125 -438.47667 
L 324.860356 -2027.931372 
L 335.319588 -1513.079955 
L 345.778819 -1348.663734 
L 356.238051 -1354.948954 
L 366.697282 -3782.629918 
L 377.156514 -1131.383223 
L 387.615745 -634.622291 
L 398.074977 -2191.683248 
L 408.534208 -1700.360826 
L 418.99344 -1562.74255 
L 429.452671 -1966.445669 
L 439.911903 -157.531118 
L 450.371134 -1273.424855 
L 460.830366 -1416.087038 
L 471.289597 -991.183984 
L 481.748828 -2421.63123 
L 492.20806 -1931.495696 
L 502.667291 -3480.937031 
L 513.126523 -1858.257979 
L 523.585754 -1545.968042 
L 534.044986 -986.510468 
L 544.504217 -1470.508234 
L 554.963449 -2934.581431 
L 565.42268 -1267.689642 
L 575.881912 -1515.427484 
L 586.341143 -388.807136 
L 596.800375 -1155.657224 
L 607.259606 -1248.295103 
L 617.718838 -1246.300234 
L 628.178069 -978.19084 
L 638.637301 -2744.31298 
L 649.096532 -351.771495 
L 659.555764 -626.27794 
L 670.014995 -460.88171 
L 680.474227 -1612.316736 
L 690.933458 -2285.189285 
L 701.39269 -2646.738128 
L 711.851921 -741.665724 
L 722.311153 -1058.694303 
L 732.770384 -1880.521898 
L 743.229616 -1856.780318 
L 753.688847 -2968.194924 
L 764.148079 -1805.713369 
L 774.60731 -1096.941596 
L 785.066542 -527.983731 
L 795.525773 -1166.487986 
L 805.985005 -1168.016879 
L 816.444236 -1710.691695 
L 826.903468 -432.083363 
L 837.362699 -918.89717 
L 847.821931 -1546.666018 
L 858.281162 -388.099358 
L 868.740394 -2068.507736 
L 879.199625 -1529.949586 
L 889.658857 -1657.43959 
L 900.118088 -565.800794 
L 910.57732 -1018.661231 
L 921.036551 -2103.428971 
L 931.495783 -1707.559245 
L 941.955014 -1375.650179 
L 952.414246 -2291.182185 
L 962.873477 -1280.41175 
L 973.332709 -1054.906977 
L 983.79194 -1354.12146 
L 994.251172 -4119.954073 
L 1004.710403 -600.756481 
L 1015.169634 -1087.044275 
L 1025.628866 -2252.307746 
L 1036.088097 -659.441619 
L 1046.547329 -750.915523 
L 1057.00656 -903.666566 
L 1067.465792 -727.663138 
L 1077.925023 -1502.775596 
L 1088.384255 -933.634307 
L 1098.843486 -1766.743458 
L 1109.302718 -868.769551 
L 1119.761949 -2444.9214 
L 1130.221181 -891.74454 
L 1140.680412 -489.15586 
L 1151.139644 -439.613271 
L 1161.598875 -1704.269737 
L 1172.058107 -2285.525166 
L 1182.517338 -897.994316 
L 1192.97657 -2801.390617 
L 1203.435801 -1144.680187 
L 1213.895033 -1309.283054 
L 1224.354264 -1113.335241 
L 1234.813496 -722.20079 
L 1245.272727 -1215.809013 
L 1245.272727 -3163.134987 
L 1245.272727 -3163.134987 
L 1234.813496 -1453.35121 
L 1224.354264 -2555.304759 
L 1213.895033 -2939.196946 
L 1203.435801 -2726.903813 
L 1192.97657 -5172.561383 
L 1182.517338 -3046.069684 
L 1172.058107 -4006.890834 
L 1161.598875 -3037.074263 
L 1151.139644 -1301.058729 
L 1140.680412 -1106.55614 
L 1130.221181 -2066.59146 
L 1119.761949 -3601.0626 
L 1109.302718 -2379.486449 
L 1098.843486 -3931.336542 
L 1088.384255 -2633.533693 
L 1077.925023 -3093.608404 
L 1067.465792 -3332.368862 
L 1057.00656 -2649.005434 
L 1046.547329 -2511.836477 
L 1036.088097 -2791.758381 
L 1025.628866 -4764.908254 
L 1015.169634 -1769.819725 
L 1004.710403 -1444.331519 
L 994.251172 -7304.045927 
L 983.79194 -4010.55054 
L 973.332709 -2352.805023 
L 962.873477 -2794.11625 
L 952.414246 -7915.153815 
L 941.955014 -4844.285821 
L 931.495783 -4193.464755 
L 921.036551 -3594.651029 
L 910.57732 -1780.218769 
L 900.118088 -3871.127206 
L 889.658857 -2808.48041 
L 879.199625 -3834.722414 
L 868.740394 -6137.380264 
L 858.281162 -656.764642 
L 847.821931 -6586.741982 
L 837.362699 -2140.91083 
L 826.903468 -1424.556637 
L 816.444236 -3813.436305 
L 805.985005 -6545.007121 
L 795.525773 -1994.792014 
L 785.066542 -1691.056269 
L 774.60731 -3615.410404 
L 764.148079 -4327.246631 
L 753.688847 -3599.645076 
L 743.229616 -3652.851682 
L 732.770384 -3281.206102 
L 722.311153 -2522.969697 
L 711.851921 -1999.230276 
L 701.39269 -5182.253872 
L 690.933458 -2934.522715 
L 680.474227 -2969.571264 
L 670.014995 -1598.70229 
L 659.555764 -2361.05006 
L 649.096532 -707.588505 
L 638.637301 -3562.59902 
L 628.178069 -2284.56116 
L 617.718838 -2233.891766 
L 607.259606 -2507.320897 
L 596.800375 -2194.070776 
L 586.341143 -1380.856864 
L 575.881912 -2863.516516 
L 565.42268 -3372.182358 
L 554.963449 -4821.930569 
L 544.504217 -3053.395766 
L 534.044986 -2131.281532 
L 523.585754 -3470.799958 
L 513.126523 -3173.006021 
L 502.667291 -5507.734969 
L 492.20806 -3592.632304 
L 481.748828 -6422.08077 
L 471.289597 -2025.136016 
L 460.830366 -4137.032962 
L 450.371134 -1829.871145 
L 439.911903 -1945.540882 
L 429.452671 -2818.386331 
L 418.99344 -3627.97745 
L 408.534208 -3229.431174 
L 398.074977 -3317.948752 
L 387.615745 -3454.401709 
L 377.156514 -2232.840777 
L 366.697282 -5264.026082 
L 356.238051 -4053.211046 
L 345.778819 -3305.704266 
L 335.319588 -4764.840045 
L 324.860356 -4713.860628 
L 314.401125 -983.28333 
L 303.941893 -3715.090255 
L 293.482662 -3669.383808 
L 283.02343 -2854.019714 
L 272.564199 -1282.391511 
L 262.104967 -2609.392009 
L 251.645736 -2793.98268 
L 241.186504 -4307.261499 
L 230.727273 -3512.702137 
z
" style="fill:#808080;fill-opacity:0.08;stroke:#808080;stroke-opacity:0.08;"/>
   </g>
   <g id="PolyCollection_2">
    <path clip-path="url(#p08d50456cb)" d="M 230.727273 -3360.479838 
L 230.727273 -2018.688162 
L 241.186504 -3576.624259 
L 251.645736 -2072.240934 
L 262.104967 -2657.011896 
L 272.564199 -1974.632632 
L 283.02343 -5718.845367 
L 293.482662 -3034.774034 
L 303.941893 -939.678945 
L 314.401125 -1420.938931 
L 324.860356 -1152.65205 
L 335.319588 -6220.40814 
L 345.778819 -1091.92345 
L 356.238051 -954.706714 
L 366.697282 -1691.156573 
L 377.156514 -1381.369627 
L 387.615745 -1819.346327 
L 398.074977 -568.59039 
L 408.534208 -1152.1317 
L 418.99344 -1691.751093 
L 429.452671 -1039.137845 
L 439.911903 -554.755038 
L 450.371134 -980.857692 
L 460.830366 -481.717174 
L 471.289597 -367.835249 
L 481.748828 -1414.08327 
L 492.20806 -235.817042 
L 502.667291 -254.215225 
L 513.126523 -1593.295531 
L 523.585754 -207.434517 
L 534.044986 -266.33086 
L 544.504217 -660.286025 
L 554.963449 -195.716 
L 565.42268 -374.925564 
L 575.881912 40.571742 
L 586.341143 -869.339531 
L 596.800375 -500.580001 
L 607.259606 62.24 
L 617.718838 -180.8569 
L 628.178069 -66.526485 
L 638.637301 -89.07721 
L 649.096532 -310.287946 
L 659.555764 -291.818368 
L 670.014995 -382.576678 
L 680.474227 -63.019701 
L 690.933458 -517.237463 
L 701.39269 -295.514927 
L 711.851921 -890.280899 
L 722.311153 -213.41203 
L 732.770384 -8.059895 
L 743.229616 171.500116 
L 753.688847 113.357954 
L 764.148079 32.885195 
L 774.60731 16.93812 
L 785.066542 -39.704775 
L 795.525773 -128.998375 
L 805.985005 -158.966016 
L 816.444236 -253.172896 
L 826.903468 -251.73647 
L 837.362699 189.798255 
L 847.821931 63.968138 
L 858.281162 101.547391 
L 868.740394 -110.821555 
L 879.199625 173.561724 
L 889.658857 28.429422 
L 900.118088 63.234961 
L 910.57732 38.211227 
L 921.036551 -60.044866 
L 931.495783 232.811038 
L 941.955014 56.746902 
L 952.414246 124.354132 
L 962.873477 -21.917891 
L 973.332709 -71.694957 
L 983.79194 149.216 
L 994.251172 252.461498 
L 1004.710403 187.20759 
L 1015.169634 88.263147 
L 1025.628866 103.775162 
L 1036.088097 82.004699 
L 1046.547329 -24.615227 
L 1057.00656 46.069198 
L 1067.465792 187.027373 
L 1077.925023 68.232808 
L 1088.384255 112.747872 
L 1098.843486 -133.599567 
L 1109.302718 65.417316 
L 1119.761949 -81.888868 
L 1130.221181 292.190062 
L 1140.680412 120.152508 
L 1151.139644 132.068611 
L 1161.598875 212.595259 
L 1172.058107 124.180324 
L 1182.517338 53.93615 
L 1192.97657 -240.997662 
L 1203.435801 -400.444763 
L 1213.895033 63.008464 
L 1224.354264 149.923384 
L 1234.813496 -102.96328 
L 1245.272727 -117.543266 
L 1245.272727 -572.168734 
L 1245.272727 -572.168734 
L 1234.813496 -427.29272 
L 1224.354264 -114.835384 
L 1213.895033 -165.632464 
L 1203.435801 -1173.523237 
L 1192.97657 -782.122338 
L 1182.517338 -243.53615 
L 1172.058107 -161.572324 
L 1161.598875 -47.043259 
L 1151.139644 -140.468611 
L 1140.680412 -288.008508 
L 1130.221181 156.033938 
L 1119.761949 -433.871132 
L 1109.302718 -479.705316 
L 1098.843486 -621.344433 
L 1088.384255 -142.891872 
L 1077.925023 -395.544808 
L 1067.465792 22.012627 
L 1057.00656 -206.677198 
L 1046.547329 -556.376773 
L 1036.088097 -199.124699 
L 1025.628866 -199.151162 
L 1015.169634 -132.903147 
L 1004.710403 -181.11159 
L 994.251172 -173.885498 
L 983.79194 74.32 
L 973.332709 -596.273043 
L 962.873477 -312.642109 
L 952.414246 -132.754132 
L 941.955014 -384.058902 
L 931.495783 70.452962 
L 921.036551 -549.939134 
L 910.57732 -184.323227 
L 900.118088 -231.090961 
L 889.658857 -406.477422 
L 879.199625 -109.481724 
L 868.740394 -491.914445 
L 858.281162 -167.931391 
L 847.821931 -427.520138 
L 837.362699 -24.246255 
L 826.903468 -1097.54353 
L 816.444236 -755.451104 
L 805.985005 -806.169984 
L 795.525773 -1017.337625 
L 785.066542 -6064.263225 
L 774.60731 -953.08212 
L 764.148079 -1012.517195 
L 753.688847 -223.229954 
L 743.229616 -3557.468116 
L 732.770384 -304.756105 
L 722.311153 -4897.57997 
L 711.851921 -3633.623101 
L 701.39269 -5728.725073 
L 690.933458 -3818.218537 
L 680.474227 -2054.548299 
L 670.014995 -16180.255322 
L 659.555764 -3239.109632 
L 649.096532 -1328.912054 
L 638.637301 -30795.80279 
L 628.178069 -1000.081515 
L 617.718838 -842.2631 
L 607.259606 -353.312 
L 596.800375 -2986.859999 
L 586.341143 -36169.092469 
L 575.881912 -5970.587742 
L 565.42268 -13397.426436 
L 554.963449 -689.692 
L 544.504217 -4153.537975 
L 534.044986 -1401.86114 
L 523.585754 -3185.781483 
L 513.126523 -7475.104469 
L 502.667291 -1972.072775 
L 492.20806 -8448.438958 
L 481.748828 -3950.58873 
L 471.289597 -1010.436751 
L 460.830366 -1461.898826 
L 450.371134 -2644.294308 
L 439.911903 -968.476962 
L 429.452671 -4195.070155 
L 418.99344 -2629.208907 
L 408.534208 -7640.8443 
L 398.074977 -1440.25761 
L 387.615745 -5241.357673 
L 377.156514 -2410.486373 
L 366.697282 -3086.427427 
L 356.238051 -2250.061286 
L 345.778819 -2192.57255 
L 335.319588 -178300.32786 
L 324.860356 -2530.48395 
L 314.401125 -3255.173069 
L 303.941893 -1547.537055 
L 293.482662 -4504.297966 
L 283.02343 -10546.818633 
L 272.564199 -4535.223368 
L 262.104967 -5150.236104 
L 251.645736 -3741.807066 
L 241.186504 -5890.415741 
L 230.727273 -3360.479838 
z
" style="fill:#ffa500;fill-opacity:0.08;stroke:#ffa500;stroke-opacity:0.08;"/>
   </g>
   <g id="PolyCollection_3">
    <defs>
     <path d="M 230.727273 -351.452249 
L 230.727273 -328.659751 
L 241.186504 -332.87532 
L 251.645736 -327.392156 
L 262.104967 -312.776249 
L 272.564199 -327.392156 
L 283.02343 -348.512 
L 293.482662 -328.659751 
L 303.941893 -310.577026 
L 314.401125 -319.52 
L 324.860356 -312.776249 
L 335.319588 -321.936 
L 345.778819 -313.923035 
L 356.238051 -327.392156 
L 366.697282 -313.923035 
L 377.156514 -341.888156 
L 387.615745 -331.6 
L 398.074977 -325.073026 
L 408.534208 -318.112497 
L 418.99344 -323.373218 
L 429.452671 -312.776249 
L 439.911903 -352.258033 
L 450.371134 -337.269598 
L 460.830366 -330.021598 
L 471.289597 -329.184 
L 481.748828 -310.577026 
L 492.20806 -327.392156 
L 502.667291 -332.87532 
L 513.126523 -328.659751 
L 523.585754 -330.021598 
L 534.044986 -340.3969 
L 544.504217 -331.6 
L 554.963449 -353.69649 
L 565.42268 -338.848 
L 575.881912 -340.3969 
L 586.341143 -334.322872 
L 596.800375 -327.392156 
L 607.259606 -334.322872 
L 617.718838 -337.269598 
L 628.178069 -323.373218 
L 638.637301 -325.9009 
L 649.096532 -343.68 
L 659.555764 -327.392156 
L 670.014995 -337.269598 
L 680.474227 -321.936 
L 690.933458 -327.392156 
L 701.39269 -335.907751 
L 711.851921 -317.45649 
L 722.311153 -321.171035 
L 732.770384 -337.269598 
L 743.229616 -323.373218 
L 753.688847 -315.820793 
L 764.148079 -327.392156 
L 774.60731 -331.6 
L 785.066542 -321.936 
L 795.525773 -319.52 
L 805.985005 -319.52 
L 816.444236 -315.820793 
L 826.903468 -341.888156 
L 837.362699 -317.45649 
L 847.821931 -321.936 
L 858.281162 -319.52 
L 868.740394 -317.45649 
L 879.199625 -321.936 
L 889.658857 -310.577026 
L 900.118088 -330.021598 
L 910.57732 -331.6 
L 921.036551 -321.171035 
L 931.495783 -341.888156 
L 941.955014 -331.6 
L 952.414246 -323.373218 
L 962.873477 -312.776249 
L 973.332709 -332.87532 
L 983.79194 -321.936 
L 994.251172 -325.9009 
L 1004.710403 -323.373218 
L 1015.169634 -315.820793 
L 1025.628866 -328.659751 
L 1036.088097 -319.52 
L 1046.547329 -310.577026 
L 1057.00656 -319.52 
L 1067.465792 -336.039937 
L 1077.925023 -336.039937 
L 1088.384255 -310.577026 
L 1098.843486 -338.848 
L 1109.302718 -327.392156 
L 1119.761949 -343.68 
L 1130.221181 -332.87532 
L 1140.680412 -331.6 
L 1151.139644 -324.596066 
L 1161.598875 -328.659751 
L 1172.058107 -330.021598 
L 1182.517338 -328.659751 
L 1192.97657 -316.018033 
L 1203.435801 -325.9009 
L 1213.895033 -343.68 
L 1224.354264 -345.117218 
L 1234.813496 -329.184 
L 1245.272727 -345.117218 
L 1245.272727 -363.986782 
L 1245.272727 -363.986782 
L 1234.813496 -343.68 
L 1224.354264 -363.986782 
L 1213.895033 -365.424 
L 1203.435801 -346.9631 
L 1192.97657 -327.853967 
L 1182.517338 -351.452249 
L 1172.058107 -350.090402 
L 1161.598875 -351.452249 
L 1151.139644 -348.267934 
L 1140.680412 -348.512 
L 1130.221181 -354.48468 
L 1119.761949 -365.424 
L 1109.302718 -345.471844 
L 1098.843486 -355.76 
L 1088.384255 -326.046974 
L 1077.925023 -351.320063 
L 1067.465792 -351.320063 
L 1057.00656 -338.848 
L 1046.547329 -326.046974 
L 1036.088097 -331.6 
L 1025.628866 -351.452249 
L 1015.169634 -335.299207 
L 1004.710403 -342.242782 
L 994.251172 -346.9631 
L 983.79194 -343.68 
L 973.332709 -354.48468 
L 962.873477 -323.847751 
L 952.414246 -342.242782 
L 941.955014 -348.512 
L 931.495783 -359.967844 
L 921.036551 -337.196965 
L 910.57732 -355.76 
L 900.118088 -350.090402 
L 889.658857 -326.046974 
L 879.199625 -343.68 
L 868.740394 -333.66351 
L 858.281162 -338.848 
L 847.821931 -343.68 
L 837.362699 -333.66351 
L 826.903468 -359.967844 
L 816.444236 -335.299207 
L 805.985005 -338.848 
L 795.525773 -338.848 
L 785.066542 -343.68 
L 774.60731 -348.512 
L 764.148079 -345.471844 
L 753.688847 -335.299207 
L 743.229616 -342.242782 
L 732.770384 -357.338402 
L 722.311153 -337.196965 
L 711.851921 -333.66351 
L 701.39269 -358.700249 
L 690.933458 -345.471844 
L 680.474227 -343.68 
L 670.014995 -357.338402 
L 659.555764 -345.471844 
L 649.096532 -365.424 
L 638.637301 -346.9631 
L 628.178069 -342.242782 
L 617.718838 -357.338402 
L 607.259606 -353.037128 
L 596.800375 -345.471844 
L 586.341143 -353.037128 
L 575.881912 -361.4591 
L 565.42268 -355.76 
L 554.963449 -369.90351 
L 544.504217 -348.512 
L 534.044986 -361.4591 
L 523.585754 -350.090402 
L 513.126523 -351.452249 
L 502.667291 -354.48468 
L 492.20806 -345.471844 
L 481.748828 -326.046974 
L 471.289597 -343.68 
L 460.830366 -350.090402 
L 450.371134 -357.338402 
L 439.911903 -364.093967 
L 429.452671 -323.847751 
L 418.99344 -342.242782 
L 408.534208 -340.255503 
L 398.074977 -340.542974 
L 387.615745 -341.264 
L 377.156514 -359.967844 
L 366.697282 -329.948965 
L 356.238051 -345.471844 
L 345.778819 -329.948965 
L 335.319588 -343.68 
L 324.860356 -323.847751 
L 314.401125 -338.848 
L 303.941893 -326.046974 
L 293.482662 -351.452249 
L 283.02343 -367.84 
L 272.564199 -345.471844 
L 262.104967 -323.847751 
L 251.645736 -345.471844 
L 241.186504 -354.48468 
L 230.727273 -351.452249 
z
" id="m9dbc6e4f86" style="stroke:#0000ff;stroke-opacity:0.08;"/>
    </defs>
    <g clip-path="url(#p08d50456cb)">
     <use style="fill:#0000ff;fill-opacity:0.08;stroke:#0000ff;stroke-opacity:0.08;" x="0" xlink:href="#m9dbc6e4f86" y="720"/>
    </g>
   </g>
   <g id="PolyCollection_4">
    <defs>
     <path d="M 230.727273 -541.346569 
L 230.727273 -423.853431 
L 241.186504 -320.344072 
L 251.645736 -347.626294 
L 262.104967 -343.68 
L 272.564199 -324.965744 
L 283.02343 -360.90505 
L 293.482662 -333.485581 
L 303.941893 -368.664072 
L 314.401125 -345.565581 
L 324.860356 -337.842464 
L 335.319588 -333.485581 
L 345.778819 -364.453362 
L 356.238051 -313.181683 
L 366.697282 -339.362396 
L 377.156514 -340.479874 
L 387.615745 -355.163367 
L 398.074977 -323.959937 
L 408.534208 -354.215185 
L 418.99344 -326.017328 
L 429.452671 -335.546294 
L 439.911903 -335.209621 
L 450.371134 -347.626294 
L 460.830366 -347.626294 
L 471.289597 -339.362396 
L 481.748828 -352.559874 
L 492.20806 -330.055185 
L 502.667291 -366.091286 
L 513.126523 -339.133226 
L 523.585754 -326.50279 
L 534.044986 -341.406613 
L 544.504217 -343.68 
L 554.963449 -326.50279 
L 565.42268 -332.424072 
L 575.881912 -361.439749 
L 586.341143 -356.164929 
L 596.800375 -324.965744 
L 607.259606 -339.362396 
L 617.718838 -398.98279 
L 628.178069 -319.52 
L 638.637301 -313.181683 
L 649.096532 -362.74279 
L 659.555764 -347.505959 
L 670.014995 -327.472979 
L 680.474227 -374.082464 
L 690.933458 -334.829637 
L 701.39269 -330.447023 
L 711.851921 -341.931286 
L 722.311153 -324.965744 
L 732.770384 -320.344072 
L 743.229616 -343.68 
L 753.688847 -317.45649 
L 764.148079 -338.58279 
L 774.60731 -350.330164 
L 785.066542 -332.424072 
L 795.525773 -324.965744 
L 805.985005 -326.50279 
L 816.444236 -360.477212 
L 826.903468 -341.406613 
L 837.362699 -355.76 
L 847.821931 -330.447023 
L 858.281162 -338.58279 
L 868.740394 -311.879937 
L 879.199625 -338.58279 
L 889.658857 -355.225737 
L 900.118088 -355.163367 
L 910.57732 -333.485581 
L 921.036551 -313.181683 
L 931.495783 -319.52 
L 941.955014 -349.421683 
L 952.414246 -330.447023 
L 962.873477 -337.842464 
L 973.332709 -347.626294 
L 983.79194 -333.485581 
L 994.251172 -326.50279 
L 1004.710403 -339.362396 
L 1015.169634 -340.479874 
L 1025.628866 -326.50279 
L 1036.088097 -347.626294 
L 1046.547329 -262.564792 
L 1057.00656 -340.479874 
L 1067.465792 -340.479874 
L 1077.925023 -332.424072 
L 1088.384255 -341.900758 
L 1098.843486 -313.181683 
L 1109.302718 -349.644559 
L 1119.761949 -343.68 
L 1130.221181 -319.52 
L 1140.680412 -327.472979 
L 1151.139644 -335.173754 
L 1161.598875 -311.879937 
L 1172.058107 -348.444941 
L 1182.517338 -313.181683 
L 1192.97657 -335.967271 
L 1203.435801 -358.813576 
L 1213.895033 -307.44 
L 1224.354264 -327.94247 
L 1234.813496 -343.68 
L 1245.272727 -356.999812 
L 1245.272727 -402.840188 
L 1245.272727 -402.840188 
L 1234.813496 -367.84 
L 1224.354264 -371.49753 
L 1213.895033 -343.68 
L 1203.435801 -413.106424 
L 1192.97657 -411.792729 
L 1182.517338 -337.938317 
L 1172.058107 -435.555059 
L 1161.598875 -327.160063 
L 1151.139644 -364.266246 
L 1140.680412 -359.887021 
L 1130.221181 -343.68 
L 1119.761949 -392 
L 1109.302718 -446.435441 
L 1098.843486 -337.938317 
L 1088.384255 -442.099242 
L 1077.925023 -367.015928 
L 1067.465792 -371.040126 
L 1057.00656 -371.040126 
L 1046.547329 -352.315208 
L 1036.088097 -388.053706 
L 1025.628866 -348.77721 
L 1015.169634 -371.040126 
L 1004.710403 -384.237604 
L 994.251172 -348.77721 
L 983.79194 -378.034419 
L 973.332709 -388.053706 
L 962.873477 -373.677536 
L 952.414246 -356.912977 
L 941.955014 -374.178317 
L 931.495783 -343.68 
L 921.036551 -337.938317 
L 910.57732 -378.034419 
L 900.118088 -404.676633 
L 889.658857 -465.014263 
L 879.199625 -360.85721 
L 868.740394 -327.160063 
L 858.281162 -360.85721 
L 847.821931 -356.912977 
L 837.362699 -379.92 
L 826.903468 -382.193387 
L 816.444236 -411.442788 
L 805.985005 -348.77721 
L 795.525773 -362.394256 
L 785.066542 -367.015928 
L 774.60731 -409.509836 
L 764.148079 -360.85721 
L 753.688847 -333.66351 
L 743.229616 -367.84 
L 732.770384 -354.935928 
L 722.311153 -362.394256 
L 711.851921 -393.748714 
L 701.39269 -356.912977 
L 690.933458 -412.930363 
L 680.474227 -409.917536 
L 670.014995 -359.887021 
L 659.555764 -412.334041 
L 649.096532 -385.01721 
L 638.637301 -337.938317 
L 628.178069 -343.68 
L 617.718838 -421.25721 
L 607.259606 -384.237604 
L 596.800375 -362.394256 
L 586.341143 -427.835071 
L 575.881912 -422.560251 
L 565.42268 -367.015928 
L 554.963449 -348.77721 
L 544.504217 -355.76 
L 534.044986 -382.193387 
L 523.585754 -348.77721 
L 513.126523 -420.706774 
L 502.667291 -417.908714 
L 492.20806 -369.384815 
L 481.748828 -383.120126 
L 471.289597 -384.237604 
L 460.830366 -388.053706 
L 450.371134 -388.053706 
L 439.911903 -436.710379 
L 429.452671 -375.973706 
L 418.99344 -373.422672 
L 408.534208 -393.544815 
L 398.074977 -339.240063 
L 387.615745 -404.676633 
L 377.156514 -371.040126 
L 366.697282 -384.237604 
L 356.238051 -337.938317 
L 345.778819 -419.546638 
L 335.319588 -378.034419 
L 324.860356 -373.677536 
L 314.401125 -390.114419 
L 303.941893 -403.255928 
L 293.482662 -378.034419 
L 283.02343 -435.17495 
L 272.564199 -362.394256 
L 262.104967 -367.84 
L 251.645736 -388.053706 
L 241.186504 -354.935928 
L 230.727273 -541.346569 
z
" id="m43d6d72ab7" style="stroke:#ff0000;stroke-opacity:0.08;"/>
    </defs>
    <g clip-path="url(#p08d50456cb)">
     <use style="fill:#ff0000;fill-opacity:0.08;stroke:#ff0000;stroke-opacity:0.08;" x="0" xlink:href="#m43d6d72ab7" y="720"/>
    </g>
   </g>
   <g id="matplotlib.axis_1">
    <g id="xtick_1">
     <g id="line2d_1">
      <defs>
       <path d="M 0 0 
L 0 3.5 
" id="mdecb548ee6" style="stroke:#000000;stroke-width:0.8;"/>
      </defs>
      <g>
       <use style="stroke:#000000;stroke-width:0.8;" x="230.727273" xlink:href="#mdecb548ee6" y="630"/>
      </g>
     </g>
     <g id="text_1">
      <!-- 0 -->
      <defs>
       <path d="M 31.78125 66.40625 
Q 24.171875 66.40625 20.328125 58.90625 
Q 16.5 51.421875 16.5 36.375 
Q 16.5 21.390625 20.328125 13.890625 
Q 24.171875 6.390625 31.78125 6.390625 
Q 39.453125 6.390625 43.28125 13.890625 
Q 47.125 21.390625 47.125 36.375 
Q 47.125 51.421875 43.28125 58.90625 
Q 39.453125 66.40625 31.78125 66.40625 
z
M 31.78125 74.21875 
Q 44.046875 74.21875 50.515625 64.515625 
Q 56.984375 54.828125 56.984375 36.375 
Q 56.984375 17.96875 50.515625 8.265625 
Q 44.046875 -1.421875 31.78125 -1.421875 
Q 19.53125 -1.421875 13.0625 8.265625 
Q 6.59375 17.96875 6.59375 36.375 
Q 6.59375 54.828125 13.0625 64.515625 
Q 19.53125 74.21875 31.78125 74.21875 
z
" id="DejaVuSans-30"/>
      </defs>
      <g transform="translate(225.319148 649.917344)scale(0.17 -0.17)">
       <use xlink:href="#DejaVuSans-30"/>
      </g>
     </g>
    </g>
    <g id="xtick_2">
     <g id="line2d_2">
      <g>
       <use style="stroke:#000000;stroke-width:0.8;" x="439.911903" xlink:href="#mdecb548ee6" y="630"/>
      </g>
     </g>
     <g id="text_2">
      <!-- 20 -->
      <defs>
       <path d="M 19.1875 8.296875 
L 53.609375 8.296875 
L 53.609375 0 
L 7.328125 0 
L 7.328125 8.296875 
Q 12.9375 14.109375 22.625 23.890625 
Q 32.328125 33.6875 34.8125 36.53125 
Q 39.546875 41.84375 41.421875 45.53125 
Q 43.3125 49.21875 43.3125 52.78125 
Q 43.3125 58.59375 39.234375 62.25 
Q 35.15625 65.921875 28.609375 65.921875 
Q 23.96875 65.921875 18.8125 64.3125 
Q 13.671875 62.703125 7.8125 59.421875 
L 7.8125 69.390625 
Q 13.765625 71.78125 18.9375 73 
Q 24.125 74.21875 28.421875 74.21875 
Q 39.75 74.21875 46.484375 68.546875 
Q 53.21875 62.890625 53.21875 53.421875 
Q 53.21875 48.921875 51.53125 44.890625 
Q 49.859375 40.875 45.40625 35.40625 
Q 44.1875 33.984375 37.640625 27.21875 
Q 31.109375 20.453125 19.1875 8.296875 
z
" id="DejaVuSans-32"/>
      </defs>
      <g transform="translate(429.095653 649.917344)scale(0.17 -0.17)">
       <use xlink:href="#DejaVuSans-32"/>
       <use x="63.623047" xlink:href="#DejaVuSans-30"/>
      </g>
     </g>
    </g>
    <g id="xtick_3">
     <g id="line2d_3">
      <g>
       <use style="stroke:#000000;stroke-width:0.8;" x="649.096532" xlink:href="#mdecb548ee6" y="630"/>
      </g>
     </g>
     <g id="text_3">
      <!-- 40 -->
      <defs>
       <path d="M 37.796875 64.3125 
L 12.890625 25.390625 
L 37.796875 25.390625 
z
M 35.203125 72.90625 
L 47.609375 72.90625 
L 47.609375 25.390625 
L 58.015625 25.390625 
L 58.015625 17.1875 
L 47.609375 17.1875 
L 47.609375 0 
L 37.796875 0 
L 37.796875 17.1875 
L 4.890625 17.1875 
L 4.890625 26.703125 
z
" id="DejaVuSans-34"/>
      </defs>
      <g transform="translate(638.280282 649.917344)scale(0.17 -0.17)">
       <use xlink:href="#DejaVuSans-34"/>
       <use x="63.623047" xlink:href="#DejaVuSans-30"/>
      </g>
     </g>
    </g>
    <g id="xtick_4">
     <g id="line2d_4">
      <g>
       <use style="stroke:#000000;stroke-width:0.8;" x="858.281162" xlink:href="#mdecb548ee6" y="630"/>
      </g>
     </g>
     <g id="text_4">
      <!-- 60 -->
      <defs>
       <path d="M 33.015625 40.375 
Q 26.375 40.375 22.484375 35.828125 
Q 18.609375 31.296875 18.609375 23.390625 
Q 18.609375 15.53125 22.484375 10.953125 
Q 26.375 6.390625 33.015625 6.390625 
Q 39.65625 6.390625 43.53125 10.953125 
Q 47.40625 15.53125 47.40625 23.390625 
Q 47.40625 31.296875 43.53125 35.828125 
Q 39.65625 40.375 33.015625 40.375 
z
M 52.59375 71.296875 
L 52.59375 62.3125 
Q 48.875 64.0625 45.09375 64.984375 
Q 41.3125 65.921875 37.59375 65.921875 
Q 27.828125 65.921875 22.671875 59.328125 
Q 17.53125 52.734375 16.796875 39.40625 
Q 19.671875 43.65625 24.015625 45.921875 
Q 28.375 48.1875 33.59375 48.1875 
Q 44.578125 48.1875 50.953125 41.515625 
Q 57.328125 34.859375 57.328125 23.390625 
Q 57.328125 12.15625 50.6875 5.359375 
Q 44.046875 -1.421875 33.015625 -1.421875 
Q 20.359375 -1.421875 13.671875 8.265625 
Q 6.984375 17.96875 6.984375 36.375 
Q 6.984375 53.65625 15.1875 63.9375 
Q 23.390625 74.21875 37.203125 74.21875 
Q 40.921875 74.21875 44.703125 73.484375 
Q 48.484375 72.75 52.59375 71.296875 
z
" id="DejaVuSans-36"/>
      </defs>
      <g transform="translate(847.464912 649.917344)scale(0.17 -0.17)">
       <use xlink:href="#DejaVuSans-36"/>
       <use x="63.623047" xlink:href="#DejaVuSans-30"/>
      </g>
     </g>
    </g>
    <g id="xtick_5">
     <g id="line2d_5">
      <g>
       <use style="stroke:#000000;stroke-width:0.8;" x="1067.465792" xlink:href="#mdecb548ee6" y="630"/>
      </g>
     </g>
     <g id="text_5">
      <!-- 80 -->
      <defs>
       <path d="M 31.78125 34.625 
Q 24.75 34.625 20.71875 30.859375 
Q 16.703125 27.09375 16.703125 20.515625 
Q 16.703125 13.921875 20.71875 10.15625 
Q 24.75 6.390625 31.78125 6.390625 
Q 38.8125 6.390625 42.859375 10.171875 
Q 46.921875 13.96875 46.921875 20.515625 
Q 46.921875 27.09375 42.890625 30.859375 
Q 38.875 34.625 31.78125 34.625 
z
M 21.921875 38.8125 
Q 15.578125 40.375 12.03125 44.71875 
Q 8.5 49.078125 8.5 55.328125 
Q 8.5 64.0625 14.71875 69.140625 
Q 20.953125 74.21875 31.78125 74.21875 
Q 42.671875 74.21875 48.875 69.140625 
Q 55.078125 64.0625 55.078125 55.328125 
Q 55.078125 49.078125 51.53125 44.71875 
Q 48 40.375 41.703125 38.8125 
Q 48.828125 37.15625 52.796875 32.3125 
Q 56.78125 27.484375 56.78125 20.515625 
Q 56.78125 9.90625 50.3125 4.234375 
Q 43.84375 -1.421875 31.78125 -1.421875 
Q 19.734375 -1.421875 13.25 4.234375 
Q 6.78125 9.90625 6.78125 20.515625 
Q 6.78125 27.484375 10.78125 32.3125 
Q 14.796875 37.15625 21.921875 38.8125 
z
M 18.3125 54.390625 
Q 18.3125 48.734375 21.84375 45.5625 
Q 25.390625 42.390625 31.78125 42.390625 
Q 38.140625 42.390625 41.71875 45.5625 
Q 45.3125 48.734375 45.3125 54.390625 
Q 45.3125 60.0625 41.71875 63.234375 
Q 38.140625 66.40625 31.78125 66.40625 
Q 25.390625 66.40625 21.84375 63.234375 
Q 18.3125 60.0625 18.3125 54.390625 
z
" id="DejaVuSans-38"/>
      </defs>
      <g transform="translate(1056.649542 649.917344)scale(0.17 -0.17)">
       <use xlink:href="#DejaVuSans-38"/>
       <use x="63.623047" xlink:href="#DejaVuSans-30"/>
      </g>
     </g>
    </g>
    <g id="xtick_6">
     <g id="line2d_6">
      <g>
       <use style="stroke:#000000;stroke-width:0.8;" x="1276.650422" xlink:href="#mdecb548ee6" y="630"/>
      </g>
     </g>
     <g id="text_6">
      <!-- 100 -->
      <defs>
       <path d="M 12.40625 8.296875 
L 28.515625 8.296875 
L 28.515625 63.921875 
L 10.984375 60.40625 
L 10.984375 69.390625 
L 28.421875 72.90625 
L 38.28125 72.90625 
L 38.28125 8.296875 
L 54.390625 8.296875 
L 54.390625 0 
L 12.40625 0 
z
" id="DejaVuSans-31"/>
      </defs>
      <g transform="translate(1260.426047 649.917344)scale(0.17 -0.17)">
       <use xlink:href="#DejaVuSans-31"/>
       <use x="63.623047" xlink:href="#DejaVuSans-30"/>
       <use x="127.246094" xlink:href="#DejaVuSans-30"/>
      </g>
     </g>
    </g>
    <g id="text_7">
     <!-- No. of Levels Played -->
     <defs>
      <path d="M 9.8125 72.90625 
L 23.09375 72.90625 
L 55.421875 11.921875 
L 55.421875 72.90625 
L 64.984375 72.90625 
L 64.984375 0 
L 51.703125 0 
L 19.390625 60.984375 
L 19.390625 0 
L 9.8125 0 
z
" id="DejaVuSans-4e"/>
      <path d="M 30.609375 48.390625 
Q 23.390625 48.390625 19.1875 42.75 
Q 14.984375 37.109375 14.984375 27.296875 
Q 14.984375 17.484375 19.15625 11.84375 
Q 23.34375 6.203125 30.609375 6.203125 
Q 37.796875 6.203125 41.984375 11.859375 
Q 46.1875 17.53125 46.1875 27.296875 
Q 46.1875 37.015625 41.984375 42.703125 
Q 37.796875 48.390625 30.609375 48.390625 
z
M 30.609375 56 
Q 42.328125 56 49.015625 48.375 
Q 55.71875 40.765625 55.71875 27.296875 
Q 55.71875 13.875 49.015625 6.21875 
Q 42.328125 -1.421875 30.609375 -1.421875 
Q 18.84375 -1.421875 12.171875 6.21875 
Q 5.515625 13.875 5.515625 27.296875 
Q 5.515625 40.765625 12.171875 48.375 
Q 18.84375 56 30.609375 56 
z
" id="DejaVuSans-6f"/>
      <path d="M 10.6875 12.40625 
L 21 12.40625 
L 21 0 
L 10.6875 0 
z
" id="DejaVuSans-2e"/>
      <path id="DejaVuSans-20"/>
      <path d="M 37.109375 75.984375 
L 37.109375 68.5 
L 28.515625 68.5 
Q 23.6875 68.5 21.796875 66.546875 
Q 19.921875 64.59375 19.921875 59.515625 
L 19.921875 54.6875 
L 34.71875 54.6875 
L 34.71875 47.703125 
L 19.921875 47.703125 
L 19.921875 0 
L 10.890625 0 
L 10.890625 47.703125 
L 2.296875 47.703125 
L 2.296875 54.6875 
L 10.890625 54.6875 
L 10.890625 58.5 
Q 10.890625 67.625 15.140625 71.796875 
Q 19.390625 75.984375 28.609375 75.984375 
z
" id="DejaVuSans-66"/>
      <path d="M 9.8125 72.90625 
L 19.671875 72.90625 
L 19.671875 8.296875 
L 55.171875 8.296875 
L 55.171875 0 
L 9.8125 0 
z
" id="DejaVuSans-4c"/>
      <path d="M 56.203125 29.59375 
L 56.203125 25.203125 
L 14.890625 25.203125 
Q 15.484375 15.921875 20.484375 11.0625 
Q 25.484375 6.203125 34.421875 6.203125 
Q 39.59375 6.203125 44.453125 7.46875 
Q 49.3125 8.734375 54.109375 11.28125 
L 54.109375 2.78125 
Q 49.265625 0.734375 44.1875 -0.34375 
Q 39.109375 -1.421875 33.890625 -1.421875 
Q 20.796875 -1.421875 13.15625 6.1875 
Q 5.515625 13.8125 5.515625 26.8125 
Q 5.515625 40.234375 12.765625 48.109375 
Q 20.015625 56 32.328125 56 
Q 43.359375 56 49.78125 48.890625 
Q 56.203125 41.796875 56.203125 29.59375 
z
M 47.21875 32.234375 
Q 47.125 39.59375 43.09375 43.984375 
Q 39.0625 48.390625 32.421875 48.390625 
Q 24.90625 48.390625 20.390625 44.140625 
Q 15.875 39.890625 15.1875 32.171875 
z
" id="DejaVuSans-65"/>
      <path d="M 2.984375 54.6875 
L 12.5 54.6875 
L 29.59375 8.796875 
L 46.6875 54.6875 
L 56.203125 54.6875 
L 35.6875 0 
L 23.484375 0 
z
" id="DejaVuSans-76"/>
      <path d="M 9.421875 75.984375 
L 18.40625 75.984375 
L 18.40625 0 
L 9.421875 0 
z
" id="DejaVuSans-6c"/>
      <path d="M 44.28125 53.078125 
L 44.28125 44.578125 
Q 40.484375 46.53125 36.375 47.5 
Q 32.28125 48.484375 27.875 48.484375 
Q 21.1875 48.484375 17.84375 46.4375 
Q 14.5 44.390625 14.5 40.28125 
Q 14.5 37.15625 16.890625 35.375 
Q 19.28125 33.59375 26.515625 31.984375 
L 29.59375 31.296875 
Q 39.15625 29.25 43.1875 25.515625 
Q 47.21875 21.78125 47.21875 15.09375 
Q 47.21875 7.46875 41.1875 3.015625 
Q 35.15625 -1.421875 24.609375 -1.421875 
Q 20.21875 -1.421875 15.453125 -0.5625 
Q 10.6875 0.296875 5.421875 2 
L 5.421875 11.28125 
Q 10.40625 8.6875 15.234375 7.390625 
Q 20.0625 6.109375 24.8125 6.109375 
Q 31.15625 6.109375 34.5625 8.28125 
Q 37.984375 10.453125 37.984375 14.40625 
Q 37.984375 18.0625 35.515625 20.015625 
Q 33.0625 21.96875 24.703125 23.78125 
L 21.578125 24.515625 
Q 13.234375 26.265625 9.515625 29.90625 
Q 5.8125 33.546875 5.8125 39.890625 
Q 5.8125 47.609375 11.28125 51.796875 
Q 16.75 56 26.8125 56 
Q 31.78125 56 36.171875 55.265625 
Q 40.578125 54.546875 44.28125 53.078125 
z
" id="DejaVuSans-73"/>
      <path d="M 19.671875 64.796875 
L 19.671875 37.40625 
L 32.078125 37.40625 
Q 38.96875 37.40625 42.71875 40.96875 
Q 46.484375 44.53125 46.484375 51.125 
Q 46.484375 57.671875 42.71875 61.234375 
Q 38.96875 64.796875 32.078125 64.796875 
z
M 9.8125 72.90625 
L 32.078125 72.90625 
Q 44.34375 72.90625 50.609375 67.359375 
Q 56.890625 61.8125 56.890625 51.125 
Q 56.890625 40.328125 50.609375 34.8125 
Q 44.34375 29.296875 32.078125 29.296875 
L 19.671875 29.296875 
L 19.671875 0 
L 9.8125 0 
z
" id="DejaVuSans-50"/>
      <path d="M 34.28125 27.484375 
Q 23.390625 27.484375 19.1875 25 
Q 14.984375 22.515625 14.984375 16.5 
Q 14.984375 11.71875 18.140625 8.90625 
Q 21.296875 6.109375 26.703125 6.109375 
Q 34.1875 6.109375 38.703125 11.40625 
Q 43.21875 16.703125 43.21875 25.484375 
L 43.21875 27.484375 
z
M 52.203125 31.203125 
L 52.203125 0 
L 43.21875 0 
L 43.21875 8.296875 
Q 40.140625 3.328125 35.546875 0.953125 
Q 30.953125 -1.421875 24.3125 -1.421875 
Q 15.921875 -1.421875 10.953125 3.296875 
Q 6 8.015625 6 15.921875 
Q 6 25.140625 12.171875 29.828125 
Q 18.359375 34.515625 30.609375 34.515625 
L 43.21875 34.515625 
L 43.21875 35.40625 
Q 43.21875 41.609375 39.140625 45 
Q 35.0625 48.390625 27.6875 48.390625 
Q 23 48.390625 18.546875 47.265625 
Q 14.109375 46.140625 10.015625 43.890625 
L 10.015625 52.203125 
Q 14.9375 54.109375 19.578125 55.046875 
Q 24.21875 56 28.609375 56 
Q 40.484375 56 46.34375 49.84375 
Q 52.203125 43.703125 52.203125 31.203125 
z
" id="DejaVuSans-61"/>
      <path d="M 32.171875 -5.078125 
Q 28.375 -14.84375 24.75 -17.8125 
Q 21.140625 -20.796875 15.09375 -20.796875 
L 7.90625 -20.796875 
L 7.90625 -13.28125 
L 13.1875 -13.28125 
Q 16.890625 -13.28125 18.9375 -11.515625 
Q 21 -9.765625 23.484375 -3.21875 
L 25.09375 0.875 
L 2.984375 54.6875 
L 12.5 54.6875 
L 29.59375 11.921875 
L 46.6875 54.6875 
L 56.203125 54.6875 
z
" id="DejaVuSans-79"/>
      <path d="M 45.40625 46.390625 
L 45.40625 75.984375 
L 54.390625 75.984375 
L 54.390625 0 
L 45.40625 0 
L 45.40625 8.203125 
Q 42.578125 3.328125 38.25 0.953125 
Q 33.9375 -1.421875 27.875 -1.421875 
Q 17.96875 -1.421875 11.734375 6.484375 
Q 5.515625 14.40625 5.515625 27.296875 
Q 5.515625 40.1875 11.734375 48.09375 
Q 17.96875 56 27.875 56 
Q 33.9375 56 38.25 53.625 
Q 42.578125 51.265625 45.40625 46.390625 
z
M 14.796875 27.296875 
Q 14.796875 17.390625 18.875 11.75 
Q 22.953125 6.109375 30.078125 6.109375 
Q 37.203125 6.109375 41.296875 11.75 
Q 45.40625 17.390625 45.40625 27.296875 
Q 45.40625 37.203125 41.296875 42.84375 
Q 37.203125 48.484375 30.078125 48.484375 
Q 22.953125 48.484375 18.875 42.84375 
Q 14.796875 37.203125 14.796875 27.296875 
z
" id="DejaVuSans-64"/>
     </defs>
     <g transform="translate(611.638672 693.448906)scale(0.25 -0.25)">
      <use xlink:href="#DejaVuSans-4e"/>
      <use x="74.804688" xlink:href="#DejaVuSans-6f"/>
      <use x="135.970703" xlink:href="#DejaVuSans-2e"/>
      <use x="167.757812" xlink:href="#DejaVuSans-20"/>
      <use x="199.544922" xlink:href="#DejaVuSans-6f"/>
      <use x="260.726562" xlink:href="#DejaVuSans-66"/>
      <use x="295.931641" xlink:href="#DejaVuSans-20"/>
      <use x="327.71875" xlink:href="#DejaVuSans-4c"/>
      <use x="383.416016" xlink:href="#DejaVuSans-65"/>
      <use x="444.939453" xlink:href="#DejaVuSans-76"/>
      <use x="504.119141" xlink:href="#DejaVuSans-65"/>
      <use x="565.642578" xlink:href="#DejaVuSans-6c"/>
      <use x="593.425781" xlink:href="#DejaVuSans-73"/>
      <use x="645.525391" xlink:href="#DejaVuSans-20"/>
      <use x="677.3125" xlink:href="#DejaVuSans-50"/>
      <use x="737.615234" xlink:href="#DejaVuSans-6c"/>
      <use x="765.398438" xlink:href="#DejaVuSans-61"/>
      <use x="826.677734" xlink:href="#DejaVuSans-79"/>
      <use x="885.857422" xlink:href="#DejaVuSans-65"/>
      <use x="947.380859" xlink:href="#DejaVuSans-64"/>
     </g>
    </g>
   </g>
   <g id="matplotlib.axis_2">
    <g id="ytick_1">
     <g id="line2d_7">
      <defs>
       <path d="M 0 0 
L -3.5 0 
" id="m7c8a03638c" style="stroke:#000000;stroke-width:0.8;"/>
      </defs>
      <g>
       <use style="stroke:#000000;stroke-width:0.8;" x="180" xlink:href="#m7c8a03638c" y="630"/>
      </g>
     </g>
     <g id="text_8">
      <!-- 0 -->
      <g transform="translate(162.18375 636.458672)scale(0.17 -0.17)">
       <use xlink:href="#DejaVuSans-30"/>
      </g>
     </g>
    </g>
    <g id="ytick_2">
     <g id="line2d_8">
      <g>
       <use style="stroke:#000000;stroke-width:0.8;" x="180" xlink:href="#m7c8a03638c" y="557.52"/>
      </g>
     </g>
     <g id="text_9">
      <!-- 2 -->
      <g transform="translate(162.18375 563.978672)scale(0.17 -0.17)">
       <use xlink:href="#DejaVuSans-32"/>
      </g>
     </g>
    </g>
    <g id="ytick_3">
     <g id="line2d_9">
      <g>
       <use style="stroke:#000000;stroke-width:0.8;" x="180" xlink:href="#m7c8a03638c" y="485.04"/>
      </g>
     </g>
     <g id="text_10">
      <!-- 4 -->
      <g transform="translate(162.18375 491.498672)scale(0.17 -0.17)">
       <use xlink:href="#DejaVuSans-34"/>
      </g>
     </g>
    </g>
    <g id="ytick_4">
     <g id="line2d_10">
      <g>
       <use style="stroke:#000000;stroke-width:0.8;" x="180" xlink:href="#m7c8a03638c" y="412.56"/>
      </g>
     </g>
     <g id="text_11">
      <!-- 6 -->
      <g transform="translate(162.18375 419.018672)scale(0.17 -0.17)">
       <use xlink:href="#DejaVuSans-36"/>
      </g>
     </g>
    </g>
    <g id="ytick_5">
     <g id="line2d_11">
      <g>
       <use style="stroke:#000000;stroke-width:0.8;" x="180" xlink:href="#m7c8a03638c" y="340.08"/>
      </g>
     </g>
     <g id="text_12">
      <!-- 8 -->
      <g transform="translate(162.18375 346.538672)scale(0.17 -0.17)">
       <use xlink:href="#DejaVuSans-38"/>
      </g>
     </g>
    </g>
    <g id="ytick_6">
     <g id="line2d_12">
      <g>
       <use style="stroke:#000000;stroke-width:0.8;" x="180" xlink:href="#m7c8a03638c" y="267.6"/>
      </g>
     </g>
     <g id="text_13">
      <!-- 10 -->
      <g transform="translate(151.3675 274.058672)scale(0.17 -0.17)">
       <use xlink:href="#DejaVuSans-31"/>
       <use x="63.623047" xlink:href="#DejaVuSans-30"/>
      </g>
     </g>
    </g>
    <g id="ytick_7">
     <g id="line2d_13">
      <g>
       <use style="stroke:#000000;stroke-width:0.8;" x="180" xlink:href="#m7c8a03638c" y="195.12"/>
      </g>
     </g>
     <g id="text_14">
      <!-- 12 -->
      <g transform="translate(151.3675 201.578672)scale(0.17 -0.17)">
       <use xlink:href="#DejaVuSans-31"/>
       <use x="63.623047" xlink:href="#DejaVuSans-32"/>
      </g>
     </g>
    </g>
    <g id="ytick_8">
     <g id="line2d_14">
      <g>
       <use style="stroke:#000000;stroke-width:0.8;" x="180" xlink:href="#m7c8a03638c" y="122.64"/>
      </g>
     </g>
     <g id="text_15">
      <!-- 14 -->
      <g transform="translate(151.3675 129.098672)scale(0.17 -0.17)">
       <use xlink:href="#DejaVuSans-31"/>
       <use x="63.623047" xlink:href="#DejaVuSans-34"/>
      </g>
     </g>
    </g>
    <g id="text_16">
     <!-- No. of Steps to Complete Level -->
     <defs>
      <path d="M 53.515625 70.515625 
L 53.515625 60.890625 
Q 47.90625 63.578125 42.921875 64.890625 
Q 37.9375 66.21875 33.296875 66.21875 
Q 25.25 66.21875 20.875 63.09375 
Q 16.5 59.96875 16.5 54.203125 
Q 16.5 49.359375 19.40625 46.890625 
Q 22.3125 44.4375 30.421875 42.921875 
L 36.375 41.703125 
Q 47.40625 39.59375 52.65625 34.296875 
Q 57.90625 29 57.90625 20.125 
Q 57.90625 9.515625 50.796875 4.046875 
Q 43.703125 -1.421875 29.984375 -1.421875 
Q 24.8125 -1.421875 18.96875 -0.25 
Q 13.140625 0.921875 6.890625 3.21875 
L 6.890625 13.375 
Q 12.890625 10.015625 18.65625 8.296875 
Q 24.421875 6.59375 29.984375 6.59375 
Q 38.421875 6.59375 43.015625 9.90625 
Q 47.609375 13.234375 47.609375 19.390625 
Q 47.609375 24.75 44.3125 27.78125 
Q 41.015625 30.8125 33.5 32.328125 
L 27.484375 33.5 
Q 16.453125 35.6875 11.515625 40.375 
Q 6.59375 45.0625 6.59375 53.421875 
Q 6.59375 63.09375 13.40625 68.65625 
Q 20.21875 74.21875 32.171875 74.21875 
Q 37.3125 74.21875 42.625 73.28125 
Q 47.953125 72.359375 53.515625 70.515625 
z
" id="DejaVuSans-53"/>
      <path d="M 18.3125 70.21875 
L 18.3125 54.6875 
L 36.8125 54.6875 
L 36.8125 47.703125 
L 18.3125 47.703125 
L 18.3125 18.015625 
Q 18.3125 11.328125 20.140625 9.421875 
Q 21.96875 7.515625 27.59375 7.515625 
L 36.8125 7.515625 
L 36.8125 0 
L 27.59375 0 
Q 17.1875 0 13.234375 3.875 
Q 9.28125 7.765625 9.28125 18.015625 
L 9.28125 47.703125 
L 2.6875 47.703125 
L 2.6875 54.6875 
L 9.28125 54.6875 
L 9.28125 70.21875 
z
" id="DejaVuSans-74"/>
      <path d="M 18.109375 8.203125 
L 18.109375 -20.796875 
L 9.078125 -20.796875 
L 9.078125 54.6875 
L 18.109375 54.6875 
L 18.109375 46.390625 
Q 20.953125 51.265625 25.265625 53.625 
Q 29.59375 56 35.59375 56 
Q 45.5625 56 51.78125 48.09375 
Q 58.015625 40.1875 58.015625 27.296875 
Q 58.015625 14.40625 51.78125 6.484375 
Q 45.5625 -1.421875 35.59375 -1.421875 
Q 29.59375 -1.421875 25.265625 0.953125 
Q 20.953125 3.328125 18.109375 8.203125 
z
M 48.6875 27.296875 
Q 48.6875 37.203125 44.609375 42.84375 
Q 40.53125 48.484375 33.40625 48.484375 
Q 26.265625 48.484375 22.1875 42.84375 
Q 18.109375 37.203125 18.109375 27.296875 
Q 18.109375 17.390625 22.1875 11.75 
Q 26.265625 6.109375 33.40625 6.109375 
Q 40.53125 6.109375 44.609375 11.75 
Q 48.6875 17.390625 48.6875 27.296875 
z
" id="DejaVuSans-70"/>
      <path d="M 64.40625 67.28125 
L 64.40625 56.890625 
Q 59.421875 61.53125 53.78125 63.8125 
Q 48.140625 66.109375 41.796875 66.109375 
Q 29.296875 66.109375 22.65625 58.46875 
Q 16.015625 50.828125 16.015625 36.375 
Q 16.015625 21.96875 22.65625 14.328125 
Q 29.296875 6.6875 41.796875 6.6875 
Q 48.140625 6.6875 53.78125 8.984375 
Q 59.421875 11.28125 64.40625 15.921875 
L 64.40625 5.609375 
Q 59.234375 2.09375 53.4375 0.328125 
Q 47.65625 -1.421875 41.21875 -1.421875 
Q 24.65625 -1.421875 15.125 8.703125 
Q 5.609375 18.84375 5.609375 36.375 
Q 5.609375 53.953125 15.125 64.078125 
Q 24.65625 74.21875 41.21875 74.21875 
Q 47.75 74.21875 53.53125 72.484375 
Q 59.328125 70.75 64.40625 67.28125 
z
" id="DejaVuSans-43"/>
      <path d="M 52 44.1875 
Q 55.375 50.25 60.0625 53.125 
Q 64.75 56 71.09375 56 
Q 79.640625 56 84.28125 50.015625 
Q 88.921875 44.046875 88.921875 33.015625 
L 88.921875 0 
L 79.890625 0 
L 79.890625 32.71875 
Q 79.890625 40.578125 77.09375 44.375 
Q 74.3125 48.1875 68.609375 48.1875 
Q 61.625 48.1875 57.5625 43.546875 
Q 53.515625 38.921875 53.515625 30.90625 
L 53.515625 0 
L 44.484375 0 
L 44.484375 32.71875 
Q 44.484375 40.625 41.703125 44.40625 
Q 38.921875 48.1875 33.109375 48.1875 
Q 26.21875 48.1875 22.15625 43.53125 
Q 18.109375 38.875 18.109375 30.90625 
L 18.109375 0 
L 9.078125 0 
L 9.078125 54.6875 
L 18.109375 54.6875 
L 18.109375 46.1875 
Q 21.1875 51.21875 25.484375 53.609375 
Q 29.78125 56 35.6875 56 
Q 41.65625 56 45.828125 52.96875 
Q 50 49.953125 52 44.1875 
z
" id="DejaVuSans-6d"/>
     </defs>
     <g transform="translate(125.168281 552.067188)rotate(-90)scale(0.25 -0.25)">
      <use xlink:href="#DejaVuSans-4e"/>
      <use x="74.804688" xlink:href="#DejaVuSans-6f"/>
      <use x="135.970703" xlink:href="#DejaVuSans-2e"/>
      <use x="167.757812" xlink:href="#DejaVuSans-20"/>
      <use x="199.544922" xlink:href="#DejaVuSans-6f"/>
      <use x="260.726562" xlink:href="#DejaVuSans-66"/>
      <use x="295.931641" xlink:href="#DejaVuSans-20"/>
      <use x="327.71875" xlink:href="#DejaVuSans-53"/>
      <use x="391.195312" xlink:href="#DejaVuSans-74"/>
      <use x="430.404297" xlink:href="#DejaVuSans-65"/>
      <use x="491.927734" xlink:href="#DejaVuSans-70"/>
      <use x="555.404297" xlink:href="#DejaVuSans-73"/>
      <use x="607.503906" xlink:href="#DejaVuSans-20"/>
      <use x="639.291016" xlink:href="#DejaVuSans-74"/>
      <use x="678.5" xlink:href="#DejaVuSans-6f"/>
      <use x="739.681641" xlink:href="#DejaVuSans-20"/>
      <use x="771.46875" xlink:href="#DejaVuSans-43"/>
      <use x="841.292969" xlink:href="#DejaVuSans-6f"/>
      <use x="902.474609" xlink:href="#DejaVuSans-6d"/>
      <use x="999.886719" xlink:href="#DejaVuSans-70"/>
      <use x="1063.363281" xlink:href="#DejaVuSans-6c"/>
      <use x="1091.146484" xlink:href="#DejaVuSans-65"/>
      <use x="1152.669922" xlink:href="#DejaVuSans-74"/>
      <use x="1191.878906" xlink:href="#DejaVuSans-65"/>
      <use x="1253.402344" xlink:href="#DejaVuSans-20"/>
      <use x="1285.189453" xlink:href="#DejaVuSans-4c"/>
      <use x="1340.886719" xlink:href="#DejaVuSans-65"/>
      <use x="1402.410156" xlink:href="#DejaVuSans-76"/>
      <use x="1461.589844" xlink:href="#DejaVuSans-65"/>
      <use x="1523.113281" xlink:href="#DejaVuSans-6c"/>
     </g>
    </g>
   </g>
   <g id="line2d_15">
    <path clip-path="url(#p08d50456cb)" style="fill:none;stroke:#808080;stroke-linecap:square;"/>
   </g>
   <g id="line2d_16">
    <path clip-path="url(#p08d50456cb)" d="M 836.205828 -1 
L 837.362699 82.776 
L 840.674837 -1 
M 878.163138 -1 
L 879.199625 32.04 
L 880.762851 -1 
M 927.99966 -1 
L 931.495783 151.632 
L 936.559132 -1 
M 981.145925 -1 
L 983.79194 111.768 
L 994.251172 39.288 
L 1004.710403 3.048 
L 1006.379394 -1 
M 1061.494392 -1 
L 1067.465792 104.52 
L 1071.581217 -1 
M 1125.336248 -1 
L 1130.221181 224.112 
L 1137.864664 -1 
M 1151.524457 -1 
L 1161.598875 82.776 
L 1170.234091 -1 
M 1221.537429 -1 
L 1224.354264 17.544 
L 1225.040416 -1 
" style="fill:none;stroke:#ffa500;stroke-linecap:square;stroke-width:2;"/>
   </g>
   <g id="line2d_17">
    <path clip-path="url(#p08d50456cb)" d="M 230.727273 379.944 
L 241.186504 376.32 
L 251.645736 383.568 
L 262.104967 401.688 
L 272.564199 383.568 
L 283.02343 361.824 
L 293.482662 379.944 
L 303.941893 401.688 
L 314.401125 390.816 
L 324.860356 401.688 
L 335.319588 387.192 
L 345.778819 398.064 
L 356.238051 383.568 
L 366.697282 398.064 
L 377.156514 369.072 
L 387.615745 383.568 
L 398.074977 387.192 
L 408.534208 390.816 
L 418.99344 387.192 
L 429.452671 401.688 
L 439.911903 361.824 
L 450.371134 372.696 
L 460.830366 379.944 
L 471.289597 383.568 
L 481.748828 401.688 
L 492.20806 383.568 
L 502.667291 376.32 
L 513.126523 379.944 
L 523.585754 379.944 
L 534.044986 369.072 
L 544.504217 379.944 
L 554.963449 358.2 
L 565.42268 372.696 
L 575.881912 369.072 
L 586.341143 376.32 
L 596.800375 383.568 
L 607.259606 376.32 
L 617.718838 372.696 
L 628.178069 387.192 
L 638.637301 383.568 
L 649.096532 365.448 
L 659.555764 383.568 
L 670.014995 372.696 
L 680.474227 387.192 
L 690.933458 383.568 
L 701.39269 372.696 
L 711.851921 394.44 
L 722.311153 390.816 
L 732.770384 372.696 
L 743.229616 387.192 
L 753.688847 394.44 
L 764.148079 383.568 
L 774.60731 379.944 
L 785.066542 387.192 
L 795.525773 390.816 
L 805.985005 390.816 
L 816.444236 394.44 
L 826.903468 369.072 
L 837.362699 394.44 
L 847.821931 387.192 
L 858.281162 390.816 
L 868.740394 394.44 
L 879.199625 387.192 
L 889.658857 401.688 
L 900.118088 379.944 
L 910.57732 376.32 
L 921.036551 390.816 
L 931.495783 369.072 
L 941.955014 379.944 
L 952.414246 387.192 
L 962.873477 401.688 
L 973.332709 376.32 
L 983.79194 387.192 
L 994.251172 383.568 
L 1004.710403 387.192 
L 1015.169634 394.44 
L 1025.628866 379.944 
L 1036.088097 394.44 
L 1046.547329 401.688 
L 1057.00656 390.816 
L 1067.465792 376.32 
L 1077.925023 376.32 
L 1088.384255 401.688 
L 1098.843486 372.696 
L 1109.302718 383.568 
L 1119.761949 365.448 
L 1130.221181 376.32 
L 1140.680412 379.944 
L 1151.139644 383.568 
L 1161.598875 379.944 
L 1172.058107 379.944 
L 1182.517338 379.944 
L 1192.97657 398.064 
L 1203.435801 383.568 
L 1213.895033 365.448 
L 1224.354264 365.448 
L 1234.813496 383.568 
L 1245.272727 365.448 
" style="fill:none;stroke:#0000ff;stroke-linecap:square;stroke-width:2;"/>
   </g>
   <g id="line2d_18">
    <path clip-path="url(#p08d50456cb)" d="M 230.727273 237.4 
L 241.186504 382.36 
L 251.645736 352.16 
L 262.104967 364.24 
L 272.564199 376.32 
L 283.02343 321.96 
L 293.482662 364.24 
L 303.941893 334.04 
L 314.401125 352.16 
L 324.860356 364.24 
L 335.319588 364.24 
L 345.778819 328 
L 356.238051 394.44 
L 366.697282 358.2 
L 377.156514 364.24 
L 387.615745 340.08 
L 398.074977 388.4 
L 408.534208 346.12 
L 418.99344 370.28 
L 429.452671 364.24 
L 439.911903 334.04 
L 450.371134 352.16 
L 460.830366 352.16 
L 471.289597 358.2 
L 481.748828 352.16 
L 492.20806 370.28 
L 502.667291 328 
L 513.126523 340.08 
L 523.585754 382.36 
L 534.044986 358.2 
L 544.504217 370.28 
L 554.963449 382.36 
L 565.42268 370.28 
L 575.881912 328 
L 586.341143 328 
L 596.800375 376.32 
L 607.259606 358.2 
L 617.718838 309.88 
L 628.178069 388.4 
L 638.637301 394.44 
L 649.096532 346.12 
L 659.555764 340.08 
L 670.014995 376.32 
L 680.474227 328 
L 690.933458 346.12 
L 701.39269 376.32 
L 711.851921 352.16 
L 722.311153 376.32 
L 732.770384 382.36 
L 743.229616 364.24 
L 753.688847 394.44 
L 764.148079 370.28 
L 774.60731 340.08 
L 785.066542 370.28 
L 795.525773 376.32 
L 805.985005 382.36 
L 816.444236 334.04 
L 826.903468 358.2 
L 837.362699 352.16 
L 847.821931 376.32 
L 858.281162 370.28 
L 868.740394 400.48 
L 879.199625 370.28 
L 889.658857 309.88 
L 900.118088 340.08 
L 910.57732 364.24 
L 921.036551 394.44 
L 931.495783 388.4 
L 941.955014 358.2 
L 952.414246 376.32 
L 962.873477 364.24 
L 973.332709 352.16 
L 983.79194 364.24 
L 994.251172 382.36 
L 1004.710403 358.2 
L 1015.169634 364.24 
L 1025.628866 382.36 
L 1036.088097 352.16 
L 1046.547329 412.56 
L 1057.00656 364.24 
L 1067.465792 364.24 
L 1077.925023 370.28 
L 1088.384255 328 
L 1098.843486 394.44 
L 1109.302718 321.96 
L 1119.761949 352.16 
L 1130.221181 388.4 
L 1140.680412 376.32 
L 1151.139644 370.28 
L 1161.598875 400.48 
L 1172.058107 328 
L 1182.517338 394.44 
L 1192.97657 346.12 
L 1203.435801 334.04 
L 1213.895033 394.44 
L 1224.354264 370.28 
L 1234.813496 364.24 
L 1245.272727 340.08 
" style="fill:none;stroke:#ff0000;stroke-linecap:square;stroke-width:2;"/>
   </g>
   <g id="patch_3">
    <path d="M 180 630 
L 180 86.4 
" style="fill:none;stroke:#000000;stroke-linecap:square;stroke-linejoin:miter;stroke-width:0.8;"/>
   </g>
   <g id="patch_4">
    <path d="M 1296 630 
L 1296 86.4 
" style="fill:none;stroke:#000000;stroke-linecap:square;stroke-linejoin:miter;stroke-width:0.8;"/>
   </g>
   <g id="patch_5">
    <path d="M 180 630 
L 1296 630 
" style="fill:none;stroke:#000000;stroke-linecap:square;stroke-linejoin:miter;stroke-width:0.8;"/>
   </g>
   <g id="patch_6">
    <path d="M 180 86.4 
L 1296 86.4 
" style="fill:none;stroke:#000000;stroke-linecap:square;stroke-linejoin:miter;stroke-width:0.8;"/>
   </g>
   <g id="legend_1">
    <g id="patch_7">
     <path d="M 1103.970938 233.1675 
L 1280.6 233.1675 
Q 1285 233.1675 1285 228.7675 
L 1285 101.8 
Q 1285 97.4 1280.6 97.4 
L 1103.970938 97.4 
Q 1099.570938 97.4 1099.570938 101.8 
L 1099.570938 228.7675 
Q 1099.570938 233.1675 1103.970938 233.1675 
z
" style="fill:#ffffff;opacity:0.8;stroke:#cccccc;stroke-linejoin:miter;"/>
    </g>
    <g id="line2d_19">
     <path d="M 1108.370938 115.216563 
L 1152.370938 115.216563 
" style="fill:none;stroke:#808080;stroke-linecap:square;"/>
    </g>
    <g id="line2d_20"/>
    <g id="text_17">
     <!-- Random -->
     <defs>
      <path d="M 44.390625 34.1875 
Q 47.5625 33.109375 50.5625 29.59375 
Q 53.5625 26.078125 56.59375 19.921875 
L 66.609375 0 
L 56 0 
L 46.6875 18.703125 
Q 43.0625 26.03125 39.671875 28.421875 
Q 36.28125 30.8125 30.421875 30.8125 
L 19.671875 30.8125 
L 19.671875 0 
L 9.8125 0 
L 9.8125 72.90625 
L 32.078125 72.90625 
Q 44.578125 72.90625 50.734375 67.671875 
Q 56.890625 62.453125 56.890625 51.90625 
Q 56.890625 45.015625 53.6875 40.46875 
Q 50.484375 35.9375 44.390625 34.1875 
z
M 19.671875 64.796875 
L 19.671875 38.921875 
L 32.078125 38.921875 
Q 39.203125 38.921875 42.84375 42.21875 
Q 46.484375 45.515625 46.484375 51.90625 
Q 46.484375 58.296875 42.84375 61.546875 
Q 39.203125 64.796875 32.078125 64.796875 
z
" id="DejaVuSans-52"/>
      <path d="M 54.890625 33.015625 
L 54.890625 0 
L 45.90625 0 
L 45.90625 32.71875 
Q 45.90625 40.484375 42.875 44.328125 
Q 39.84375 48.1875 33.796875 48.1875 
Q 26.515625 48.1875 22.3125 43.546875 
Q 18.109375 38.921875 18.109375 30.90625 
L 18.109375 0 
L 9.078125 0 
L 9.078125 54.6875 
L 18.109375 54.6875 
L 18.109375 46.1875 
Q 21.34375 51.125 25.703125 53.5625 
Q 30.078125 56 35.796875 56 
Q 45.21875 56 50.046875 50.171875 
Q 54.890625 44.34375 54.890625 33.015625 
z
" id="DejaVuSans-6e"/>
     </defs>
     <g transform="translate(1169.970937 122.916563)scale(0.22 -0.22)">
      <use xlink:href="#DejaVuSans-52"/>
      <use x="69.451172" xlink:href="#DejaVuSans-61"/>
      <use x="130.730469" xlink:href="#DejaVuSans-6e"/>
      <use x="194.109375" xlink:href="#DejaVuSans-64"/>
      <use x="257.585938" xlink:href="#DejaVuSans-6f"/>
      <use x="318.767578" xlink:href="#DejaVuSans-6d"/>
     </g>
    </g>
    <g id="line2d_21">
     <path d="M 1108.370938 147.508438 
L 1152.370938 147.508438 
" style="fill:none;stroke:#ffa500;stroke-linecap:square;stroke-width:2;"/>
    </g>
    <g id="line2d_22"/>
    <g id="text_18">
     <!-- DQN -->
     <defs>
      <path d="M 19.671875 64.796875 
L 19.671875 8.109375 
L 31.59375 8.109375 
Q 46.6875 8.109375 53.6875 14.9375 
Q 60.6875 21.78125 60.6875 36.53125 
Q 60.6875 51.171875 53.6875 57.984375 
Q 46.6875 64.796875 31.59375 64.796875 
z
M 9.8125 72.90625 
L 30.078125 72.90625 
Q 51.265625 72.90625 61.171875 64.09375 
Q 71.09375 55.28125 71.09375 36.53125 
Q 71.09375 17.671875 61.125 8.828125 
Q 51.171875 0 30.078125 0 
L 9.8125 0 
z
" id="DejaVuSans-44"/>
      <path d="M 39.40625 66.21875 
Q 28.65625 66.21875 22.328125 58.203125 
Q 16.015625 50.203125 16.015625 36.375 
Q 16.015625 22.609375 22.328125 14.59375 
Q 28.65625 6.59375 39.40625 6.59375 
Q 50.140625 6.59375 56.421875 14.59375 
Q 62.703125 22.609375 62.703125 36.375 
Q 62.703125 50.203125 56.421875 58.203125 
Q 50.140625 66.21875 39.40625 66.21875 
z
M 53.21875 1.3125 
L 66.21875 -12.890625 
L 54.296875 -12.890625 
L 43.5 -1.21875 
Q 41.890625 -1.3125 41.03125 -1.359375 
Q 40.1875 -1.421875 39.40625 -1.421875 
Q 24.03125 -1.421875 14.8125 8.859375 
Q 5.609375 19.140625 5.609375 36.375 
Q 5.609375 53.65625 14.8125 63.9375 
Q 24.03125 74.21875 39.40625 74.21875 
Q 54.734375 74.21875 63.90625 63.9375 
Q 73.09375 53.65625 73.09375 36.375 
Q 73.09375 23.6875 67.984375 14.640625 
Q 62.890625 5.609375 53.21875 1.3125 
z
" id="DejaVuSans-51"/>
     </defs>
     <g transform="translate(1169.970937 155.208438)scale(0.22 -0.22)">
      <use xlink:href="#DejaVuSans-44"/>
      <use x="77.001953" xlink:href="#DejaVuSans-51"/>
      <use x="155.712891" xlink:href="#DejaVuSans-4e"/>
     </g>
    </g>
    <g id="line2d_23">
     <path d="M 1108.370938 179.800313 
L 1152.370938 179.800313 
" style="fill:none;stroke:#0000ff;stroke-linecap:square;stroke-width:2;"/>
    </g>
    <g id="line2d_24"/>
    <g id="text_19">
     <!-- Self Class -->
     <g transform="translate(1169.970937 187.500313)scale(0.22 -0.22)">
      <use xlink:href="#DejaVuSans-53"/>
      <use x="63.476562" xlink:href="#DejaVuSans-65"/>
      <use x="125" xlink:href="#DejaVuSans-6c"/>
      <use x="152.783203" xlink:href="#DejaVuSans-66"/>
      <use x="187.988281" xlink:href="#DejaVuSans-20"/>
      <use x="219.775391" xlink:href="#DejaVuSans-43"/>
      <use x="289.599609" xlink:href="#DejaVuSans-6c"/>
      <use x="317.382812" xlink:href="#DejaVuSans-61"/>
      <use x="378.662109" xlink:href="#DejaVuSans-73"/>
      <use x="430.761719" xlink:href="#DejaVuSans-73"/>
     </g>
    </g>
    <g id="line2d_25">
     <path d="M 1108.370938 212.092188 
L 1152.370938 212.092188 
" style="fill:none;stroke:#ff0000;stroke-linecap:square;stroke-width:2;"/>
    </g>
    <g id="line2d_26"/>
    <g id="text_20">
     <!-- Humans -->
     <defs>
      <path d="M 9.8125 72.90625 
L 19.671875 72.90625 
L 19.671875 43.015625 
L 55.515625 43.015625 
L 55.515625 72.90625 
L 65.375 72.90625 
L 65.375 0 
L 55.515625 0 
L 55.515625 34.71875 
L 19.671875 34.71875 
L 19.671875 0 
L 9.8125 0 
z
" id="DejaVuSans-48"/>
      <path d="M 8.5 21.578125 
L 8.5 54.6875 
L 17.484375 54.6875 
L 17.484375 21.921875 
Q 17.484375 14.15625 20.5 10.265625 
Q 23.53125 6.390625 29.59375 6.390625 
Q 36.859375 6.390625 41.078125 11.03125 
Q 45.3125 15.671875 45.3125 23.6875 
L 45.3125 54.6875 
L 54.296875 54.6875 
L 54.296875 0 
L 45.3125 0 
L 45.3125 8.40625 
Q 42.046875 3.421875 37.71875 1 
Q 33.40625 -1.421875 27.6875 -1.421875 
Q 18.265625 -1.421875 13.375 4.4375 
Q 8.5 10.296875 8.5 21.578125 
z
M 31.109375 56 
z
" id="DejaVuSans-75"/>
     </defs>
     <g transform="translate(1169.970937 219.792188)scale(0.22 -0.22)">
      <use xlink:href="#DejaVuSans-48"/>
      <use x="75.195312" xlink:href="#DejaVuSans-75"/>
      <use x="138.574219" xlink:href="#DejaVuSans-6d"/>
      <use x="235.986328" xlink:href="#DejaVuSans-61"/>
      <use x="297.265625" xlink:href="#DejaVuSans-6e"/>
      <use x="360.644531" xlink:href="#DejaVuSans-73"/>
     </g>
    </g>
   </g>
  </g>
 </g>
 <defs>
  <clipPath id="p08d50456cb">
   <rect height="543.6" width="1116" x="180" y="86.4"/>
  </clipPath>
 </defs>
</svg>
